Simulation
nRows=19
nColumns=15
endheader
time  TH_x TH_y TH_z SC_y  SC_z  SC_x  AC_y  AC_z  AC_x  GH_y  GH_z  GH_yy  EL_x  PS_y
0.0  0.000000  0.000000  0.000000  -41.42522863362347  -2.857931140414987  10.538969065281906  48.197559252305325  -2.3338432334159753  -9.078256499828386  16.465236239851365  1.4784317663629187  1.3414471991959485  21.245041629168004  120.000000
0.040506329113924086  0.000000  0.000000  0.000000  -40.29582050720138  -1.057438645531481  9.02583945345362  47.218096516483804  -1.2763738237071338  -7.308569971884263  32.60092390900994  1.878754278850011  -15.344169986865486  21.094941813674215  120.000000
0.08101265822784817  0.000000  0.000000  0.000000  -39.286898004170546  0.23650012039021984  7.544821713916202  46.375099480152436  -0.350962268189679  -5.87417726824432  39.94553910701682  2.396915331941588  -23.264805006939163  20.87418982160903  120.000000
0.12151898734177226  0.000000  0.000000  0.000000  -38.54303312977413  1.1097822130696708  6.100510226671517  45.72518738002175  0.4445801057759712  -4.650375009181024  43.242814027700156  2.989218251710486  -27.15289738219736  20.64713105948709  120.000000
0.16202531645569634  0.000000  0.000000  0.000000  -38.060856024652274  1.6196944636768482  4.696172446935748  45.29939499651934  1.1522018264239593  -3.5651634063380806  44.431526578035935  3.6154958413990723  -28.915900038556344  20.490012679314855  120.000000
0.20253164556962044  0.000000  0.000000  0.000000  -37.80329105949179  1.8475116828584814  3.337520438588997  45.120294410627466  1.796417985496512  -2.538325299241786  44.493817078545156  4.256407344893472  -29.493589138052393  20.42157406114412  120.000000
0.24303797468354452  0.000000  0.000000  0.000000  -37.71782844591709  1.8676545346185325  2.031218634712738  45.18452406801372  2.4056650792370795  -1.5076703636097637  43.984903007143124  4.903742964897638  -29.40555563111437  20.44782503782621  120.000000
0.2835443037974686  0.000000  0.000000  0.000000  -37.74519234468217  1.7402649898841531  0.7761729758182982  45.47991829328384  3.014130309838435  -0.4378649489644079  43.257692017589854  5.567192379690607  -28.97858102462264  20.566225547626892  120.000000
0.3240506329113927  0.000000  0.000000  0.000000  -37.83326836976806  1.5175501638095255  -0.43120556032135304  45.97132512273677  3.6585320074804666  0.6871404957692134  42.65482041074277  6.263713174743767  -28.545318938071507  20.76516445652514  120.000000
0.3645569620253168  0.000000  0.000000  0.000000  -37.93957713317559  1.2484424057959282  -1.598342728359719  46.60448345255116  4.370867563778904  1.8589840257788515  42.58125899880486  7.025275413198883  -28.533052538034415  21.02491315085943  120.000000
0.4050632911392409  0.000000  0.000000  0.000000  -38.036808460789274  0.9814163768297561  -2.729251237155575  47.307205610789715  5.173549651140515  3.05517526951594  43.422886428500576  7.889716075993699  -29.377071094212464  21.317808291408433  120.000000
0.44556962025316493  0.000000  0.000000  0.000000  -38.1107803706384  0.7631554176457725  -3.8293590920818876  47.999840220609016  6.0741253726287585  4.247883463940153  45.41261825246899  8.909621674359569  -31.386725349722813  21.607906628751085  120.000000
0.48607594936708903  0.000000  0.000000  0.000000  -38.155153791268326  0.6344765222972505  -4.9038834457211085  48.6132404280531  7.067321927559927  5.417980720427247  48.49029249895047  10.144259764887053  -34.585479066794065  21.856707378003467  120.000000
0.5265822784810131  0.000000  0.000000  0.000000  -38.16355508613792  0.6255810318663257  -5.96781147523123  49.100516708137235  8.142704050328964  6.570829271965865  52.262833068793114  11.647034518465938  -38.64847855687426  22.04017510605802  120.000000
0.5670886075949372  0.000000  0.000000  0.000000  -38.12862964377214  0.7513843414351947  -7.0429610134326674  49.45154682843726  9.293474941177644  7.73517582952312  56.171097680690494  13.442002118624865  -43.05392069328823  22.157636672483502  120.000000
0.6075949367088613  0.000000  0.000000  0.000000  -38.045739125917905  1.0069220745625  -8.130616011116444  49.68953839196734  10.508551775483824  8.94154988457426  59.7068357245221  15.50441085247047  -47.2903695814907  22.232502768254278  120.000000
0.6481012658227854  0.000000  0.000000  0.000000  -37.92112851173654  1.3676597612582269  -9.209121509566186  49.86525647785781  11.780328965184163  10.203127008582666  62.57131542149218  17.77344475656317  -51.027616281405734  22.298530959286293  120.000000
0.6886075949367094  0.000000  0.000000  0.000000  -37.77812602004497  1.7997684501652609  -10.238255119613562  50.03176411745037  13.103526741834003  11.515327319247989  64.68819279859609  20.176026638039975  -54.13922757126952  22.381061070503403  120.000000
0.7291139240506336  0.000000  0.000000  0.000000  -37.649895594393634  2.276477305262825  -11.166262237404364  50.228905432928265  14.467614460107237  12.851256304259605  66.15103761688752  22.65959322477857  -56.67178017582337  22.478961765863556  120.000000
